<svg xmlns="http://www.w3.org/2000/svg" xmlns:xlink="http://www.w3.org/1999/xlink" viewBox="0 0 116.77 52.72"><defs><style>.cls-1,.cls-11,.cls-6{fill:none;}.cls-2{clip-path:url(#clip-path);}.cls-3{fill:#54230e;}.cls-4{fill:#fff;}.cls-5{fill:#4a160e;}.cls-6{stroke:#471c0d;}.cls-11,.cls-6{stroke-miterlimit:10;stroke-width:0.41px;}.cls-7{fill:#fdd2b0;}.cls-8{fill:#fcb43f;}.cls-9{fill:#0d3653;}.cls-10{fill:#c39776;}.cls-11{stroke:#f4caa7;}</style><clipPath id="clip-path" transform="translate(0 0.07)"><rect class="cls-1" y="-0.07" width="116.5" height="52.72"/></clipPath></defs><title>JV</title><g id="Layer_17" data-name="Layer 17"><g class="cls-2"><path d="M64.27,48.76s-6.95-9.41-4.77-25S71.91.21,88.82-.06s28,14.59,28,25.36-1.5,19.58-5.31,23.46l-3,3.87H67.54Z" transform="translate(0 0.07)"/><path class="cls-3" d="M69.86,52.63S65.09,28.3,73.27,28.3H101s10.77-1.39,4.9,24.33Z" transform="translate(0 0.07)"/><path class="cls-3" d="M64.89,49.48s.4,3.72,2.86,3.1Z" transform="translate(0 0.07)"/><path class="cls-3" d="M108.37,52.63s3.36,0,2.52-3.15Z" transform="translate(0 0.07)"/><polygon points="70.34 36.21 73.82 33.55 85 34.16 85 36.62 73.82 35.09 70.34 36.21"/><polygon points="90.86 33.96 102.86 33.55 105.39 35.73 102.66 35.09 90.86 36.21 90.86 33.96"/><path class="cls-4" d="M75.83,37.81H74.29s0,3.48,3.38,3.48,3.58-3.48,3.58-3.48H79.72s.68,1.74-2,1.74S75.83,37.81,75.83,37.81Z" transform="translate(0 0.07)"/><path class="cls-4" d="M96.13,37.71H94.6s0,3.48,3.37,3.48,3.58-3.48,3.58-3.48H100s.68,1.74-2,1.74S96.13,37.71,96.13,37.71Z" transform="translate(0 0.07)"/><path class="cls-5" d="M75.83,37.81s-.51,1.74,1.94,1.74,2-1.74,2-1.74a2.13,2.13,0,0,1-2,.87A2.1,2.1,0,0,1,75.83,37.81Z" transform="translate(0 0.07)"/><path class="cls-5" d="M96.13,37.71s-.51,1.74,1.94,1.74,2-1.74,2-1.74a2.13,2.13,0,0,1-2,.87A2.1,2.1,0,0,1,96.13,37.71Z" transform="translate(0 0.07)"/><path d="M75.83,37.81a2.61,2.61,0,0,0,3.89,0s.35-1.53-2-1.53S75.83,37.81,75.83,37.81Z" transform="translate(0 0.07)"/><path d="M96.13,37.71a2.61,2.61,0,0,0,3.89,0s.36-1.53-2-1.53S96.13,37.71,96.13,37.71Z" transform="translate(0 0.07)"/><circle class="cls-4" cx="78.47" cy="37.25" r="0.43"/><circle class="cls-4" cx="98.77" cy="37.15" r="0.43"/><path d="M87.18,47.46H84.66V49.3s-6.48,1.41-6.48,3.33h5.59s.55-1.42,3.41-1.42Z" transform="translate(0 0.07)"/><path d="M88.2,47.46h2.53V49.3s6.47,1.41,6.47,3.33H91.61s-.54-1.42-3.41-1.42Z" transform="translate(0 0.07)"/><path class="cls-6" d="M85.55,38.05s-.21,5.52-4.57,7c0,0-2.39,2.39,6.82,2.39s6-2.59,6-2.59-4.1-3.07-4.1-6.82" transform="translate(0 0.07)"/><ellipse cx="84.37" cy="46.8" rx="0.89" ry="0.27"/><ellipse cx="91.22" cy="46.8" rx="0.89" ry="0.27"/><path d="M1.35,35.28V23.06A21.75,21.75,0,0,1,4,12.54C7.07,7,13.48.28,26.58.28c12.11,0,18,5.58,20.9,10.7a21.5,21.5,0,0,1,2.69,10.57V52H1.35Z" transform="translate(0 0.07)"/><path class="cls-7" d="M6,35.88v13.5H7.35V35.88l1.91-8.19a4.92,4.92,0,0,1-1.64-7.22c2.87-4.78,9.55-8.87,18.14-3.41,0,0,12.2-8.92,19,4.5,1.93,3.83-2.19,6.68-2.19,6.68l1.91,9.14-.27,12h1.5V35.6s5.59-1,5.59,3.41,1.09,11.05-6,13.64H6.53S-2.2,49.1.94,37.51C2.07,33.34,6,35.88,6,35.88Z" transform="translate(0 0.07)"/><rect class="cls-8" x="3.68" y="50.74" width="2.31" height="1.98"/><circle class="cls-9" cx="17.83" cy="37.66" r="2.22"/><circle class="cls-9" cx="34.8" cy="37.66" r="2.22"/><ellipse cx="18.03" cy="37.51" rx="1.15" ry="1.53"/><ellipse cx="34.81" cy="37.31" rx="1.15" ry="1.53"/><circle class="cls-4" cx="18.5" cy="37.21" r="0.55"/><circle class="cls-4" cx="35.54" cy="37.21" r="0.55"/><polygon points="24.96 35.38 14.17 33.08 10.44 36.91 24.96 36.91 24.96 35.38"/><polygon points="27.93 36.91 27.93 35.48 39.53 33.08 42.4 36.91 27.93 36.91"/><ellipse class="cls-10" cx="23.29" cy="51.53" rx="1.02" ry="0.48"/><ellipse class="cls-10" cx="28.95" cy="51.53" rx="1.02" ry="0.48"/><path class="cls-11" d="M24.53,39.56v6.07l-2.79,1.83a2.3,2.3,0,0,0-1,2.14h0a2.27,2.27,0,0,0,1.63,2l.73.22a10.31,10.31,0,0,0,6.05-.05l1.41-.45a2.24,2.24,0,0,0,1.54-1.86h0A2.24,2.24,0,0,0,31,47.27l-3.19-1.92V39.56" transform="translate(0 0.07)"/><rect class="cls-1" width="116.5" height="52.72"/></g></g></svg>